<svg width="68" height="69" viewBox="0 0 68 69" fill="none" xmlns="http://www.w3.org/2000/svg">
<path d="M34.0001 25.6482C29.1259 25.6482 25.1481 29.6259 25.1481 34.5001C25.1481 39.3743 29.1259 43.3521 34.0001 43.3521C38.8743 43.3521 42.852 39.3743 42.852 34.5001C42.852 29.6259 38.8743 25.6482 34.0001 25.6482ZM60.5493 34.5001C60.5493 30.8345 60.5825 27.2021 60.3766 23.5431C60.1708 19.2931 59.2012 15.5212 56.0934 12.4134C52.979 9.29895 49.2137 8.33606 44.9637 8.1302C41.2981 7.92434 37.6657 7.95754 34.0067 7.95754C30.3411 7.95754 26.7087 7.92434 23.0497 8.1302C18.7997 8.33606 15.0278 9.30559 11.92 12.4134C8.80554 15.5279 7.84265 19.2931 7.63679 23.5431C7.43093 27.2087 7.46413 30.8411 7.46413 34.5001C7.46413 38.1591 7.43093 41.7982 7.63679 45.4571C7.84265 49.7071 8.81218 53.479 11.92 56.5868C15.0344 59.7013 18.7997 60.6642 23.0497 60.87C26.7153 61.0759 30.3477 61.0427 34.0067 61.0427C37.6723 61.0427 41.3048 61.0759 44.9637 60.87C49.2137 60.6642 52.9856 59.6946 56.0934 56.5868C59.2079 53.4724 60.1708 49.7071 60.3766 45.4571C60.5891 41.7982 60.5493 38.1657 60.5493 34.5001ZM34.0001 48.12C26.463 48.12 20.3801 42.0372 20.3801 34.5001C20.3801 26.963 26.463 20.8802 34.0001 20.8802C41.5372 20.8802 47.62 26.963 47.62 34.5001C47.62 42.0372 41.5372 48.12 34.0001 48.12ZM48.1778 23.5032C46.418 23.5032 44.9969 22.0822 44.9969 20.3224C44.9969 18.5626 46.418 17.1415 48.1778 17.1415C49.9376 17.1415 51.3587 18.5626 51.3587 20.3224C51.3592 20.7402 51.2773 21.1541 51.1176 21.5403C50.9579 21.9264 50.7237 22.2773 50.4282 22.5728C50.1327 22.8682 49.7818 23.1025 49.3957 23.2622C49.0095 23.4219 48.5957 23.5038 48.1778 23.5032Z" fill="#E9E9E9"/>
</svg>
