<svg width="68" height="69" viewBox="0 0 68 69" fill="none" xmlns="http://www.w3.org/2000/svg">
<path fill-rule="evenodd" clip-rule="evenodd" d="M26.7156 25.912H37.2386V31.1537C38.7544 28.139 42.6417 25.4303 48.4812 25.4303C59.6757 25.4303 62.3334 31.4313 62.3334 42.4417V62.8332H51.0001V44.9492C51.0001 38.679 49.4842 35.143 45.6252 35.143C40.2731 35.143 38.0489 38.9538 38.0489 44.9463V62.8332H26.7156V25.912ZM7.28175 62.3515H18.6151V25.4303H7.28175V62.3515ZM20.2386 13.3915C20.239 14.3414 20.0506 15.282 19.6843 16.1585C19.3181 17.035 18.7813 17.83 18.1051 18.4972C16.7349 19.8589 14.8802 20.6212 12.9484 20.6165C11.02 20.6152 9.16963 19.8549 7.79742 18.5C7.12368 17.8305 6.58867 17.0347 6.22306 16.1581C5.85744 15.2814 5.66839 14.3413 5.66675 13.3915C5.66675 11.4733 6.43175 9.63734 7.80025 8.283C9.17126 6.92629 11.0224 6.16566 12.9512 6.1665C14.8836 6.1665 16.7366 6.92867 18.1051 8.283C19.4707 9.63734 20.2386 11.4733 20.2386 13.3915Z" fill="#E9E9E9"/>
</svg>
