<svg width="108" height="81" viewBox="0 0 108 81" fill="none" xmlns="http://www.w3.org/2000/svg">
<path fill-rule="evenodd" clip-rule="evenodd" d="M100.739 80.5C100.739 80.5 107.416 80.5 107.416 73.8333C107.416 67.1667 100.739 47.1667 74.0312 47.1667C47.3231 47.1667 40.6461 67.1667 40.6461 73.8333C40.6461 80.5 47.3231 80.5 47.3231 80.5H100.739ZM47.47 73.8333C47.4207 73.8265 47.3717 73.8176 47.3231 73.8067C47.3298 72.0467 48.4382 66.94 52.3977 62.34C56.0834 58.0267 62.5601 53.8333 74.0312 53.8333C85.4956 53.8333 91.9723 58.0333 95.6647 62.34C99.6242 66.94 100.726 72.0533 100.739 73.8067L100.686 73.82C100.655 73.8252 100.624 73.8297 100.592 73.8333H47.47ZM74.0312 33.8333C77.5729 33.8333 80.9696 32.4286 83.4739 29.9281C85.9783 27.4276 87.3852 24.0362 87.3852 20.5C87.3852 16.9638 85.9783 13.5724 83.4739 11.0719C80.9696 8.57142 77.5729 7.16667 74.0312 7.16667C70.4895 7.16667 67.0928 8.57142 64.5885 11.0719C62.0841 13.5724 60.6772 16.9638 60.6772 20.5C60.6772 24.0362 62.0841 27.4276 64.5885 29.9281C67.0928 32.4286 70.4895 33.8333 74.0312 33.8333ZM94.0622 20.5C94.0622 23.1264 93.5441 25.7272 92.5375 28.1537C91.5308 30.5802 90.0553 32.785 88.1953 34.6421C86.3352 36.4993 84.127 37.9725 81.6967 38.9776C79.2665 39.9827 76.6617 40.5 74.0312 40.5C71.4007 40.5 68.7959 39.9827 66.3656 38.9776C63.9354 37.9725 61.7271 36.4993 59.8671 34.6421C58.007 32.785 56.5316 30.5802 55.5249 28.1537C54.5182 25.7272 54.0001 23.1264 54.0001 20.5C54.0001 15.1957 56.1105 10.1086 59.8671 6.35786C63.6236 2.60714 68.7186 0.5 74.0312 0.5C79.3438 0.5 84.4387 2.60714 88.1953 6.35786C91.9518 10.1086 94.0622 15.1957 94.0622 20.5ZM33.4349 53.8333L33.4304 53.8401L33.4349 53.84V53.8333Z" fill="#656565"/>
<path fill-rule="evenodd" clip-rule="evenodd" d="M10.5995 23.8333C10.5995 18.529 12.7099 13.4419 16.4665 9.6912C20.223 5.94047 25.318 3.83333 30.6306 3.83333C35.9431 3.83333 41.0381 5.94047 44.7947 9.6912C48.5512 13.4419 50.6616 18.529 50.6616 23.8333C50.6616 29.1377 48.5512 34.2247 44.7947 37.9755C41.0381 41.7262 35.9431 43.8333 30.6306 43.8333C25.318 43.8333 20.223 41.7262 16.4665 37.9755C12.7099 34.2247 10.5995 29.1377 10.5995 23.8333ZM21.1878 14.4052C23.6922 11.9048 27.0889 10.5 30.6306 10.5C34.1723 10.5 37.5689 11.9048 40.0733 14.4052C42.5777 16.9057 43.9846 20.2971 43.9846 23.8333C43.9846 27.3696 42.5777 30.7609 40.0733 33.2614C37.5689 35.7619 34.1723 37.1667 30.6306 37.1667C27.0889 37.1667 23.6922 35.7619 21.1878 33.2614C18.6835 30.7609 17.2765 27.3696 17.2765 23.8333C17.2765 20.2971 18.6835 16.9057 21.1878 14.4052Z" fill="#D7E026"/>
<path fill-rule="evenodd" clip-rule="evenodd" d="M46.8958 49.0333C44.2249 48.1936 41.4716 47.6416 38.6831 47.3867C37.1162 47.2379 35.543 47.1645 33.9691 47.1667C7.261 47.1667 0.583984 67.1667 0.583984 73.8333C0.583984 78.28 2.80743 80.5 7.261 80.5H35.4113C34.4215 78.4188 33.9278 76.1369 33.9691 73.8333C33.9691 67.1 36.4863 60.22 41.247 54.4733C42.8695 52.5133 44.7591 50.68 46.8958 49.0333ZM27.2921 73.8333H7.261C7.261 72.1 8.35603 66.9667 12.3355 62.34C15.974 58.1006 22.296 53.9678 33.4304 53.8401L33.4349 53.8333V53.84L33.4304 53.8401C29.4815 59.7671 27.3484 66.7148 27.2921 73.8333Z" fill="#D7E026"/>
</svg>
