<svg width="107" height="81" viewBox="0 0 107 81" fill="none" xmlns="http://www.w3.org/2000/svg">
<path fill-rule="evenodd" clip-rule="evenodd" d="M100.239 80.5C100.239 80.5 106.916 80.5 106.916 73.8333C106.916 67.1667 100.239 47.1667 73.531 47.1667C46.8229 47.1667 40.1459 67.1667 40.1459 73.8333C40.1459 80.5 46.8229 80.5 46.8229 80.5H100.239ZM46.9698 73.8333C46.9204 73.8265 46.8714 73.8177 46.8229 73.8067C46.8296 72.0467 47.9379 66.94 51.8974 62.34C55.5831 58.0267 62.0598 53.8333 73.531 53.8333C84.9954 53.8333 91.4721 58.0333 95.1645 62.34C99.124 66.94 100.226 72.0533 100.239 73.8067L100.186 73.82C100.155 73.8252 100.123 73.8297 100.092 73.8333H46.9698ZM73.531 33.8333C77.0727 33.8333 80.4693 32.4286 82.9737 29.9281C85.4781 27.4276 86.885 24.0362 86.885 20.5C86.885 16.9638 85.4781 13.5724 82.9737 11.0719C80.4693 8.57142 77.0727 7.16667 73.531 7.16667C69.9892 7.16667 66.5926 8.57142 64.0882 11.0719C61.5839 13.5724 60.1769 16.9638 60.1769 20.5C60.1769 24.0362 61.5839 27.4276 64.0882 29.9281C66.5926 32.4286 69.9892 33.8333 73.531 33.8333ZM93.562 20.5C93.562 23.1264 93.0439 25.7272 92.0372 28.1537C91.0306 30.5802 89.5551 32.785 87.6951 34.6421C85.835 36.4993 83.6268 37.9725 81.1965 38.9776C78.7662 39.9827 76.1615 40.5 73.531 40.5C70.9004 40.5 68.2957 39.9827 65.8654 38.9776C63.4351 37.9725 61.2269 36.4993 59.3669 34.6421C57.5068 32.785 56.0313 30.5802 55.0247 28.1537C54.018 25.7272 53.4999 23.1264 53.4999 20.5C53.4999 15.1957 55.6103 10.1086 59.3669 6.35786C63.1234 2.60714 68.2184 0.5 73.531 0.5C78.8435 0.5 83.9385 2.60714 87.6951 6.35786C91.4516 10.1086 93.562 15.1957 93.562 20.5ZM32.9347 53.8333L32.9302 53.8401L32.9347 53.84V53.8333Z" fill="#D7E026"/>
<path fill-rule="evenodd" clip-rule="evenodd" d="M10.0993 23.8333C10.0993 18.529 12.2097 13.4419 15.9662 9.6912C19.7228 5.94047 24.8178 3.83333 30.1303 3.83333C35.4429 3.83333 40.5379 5.94047 44.2944 9.6912C48.051 13.4419 50.1614 18.529 50.1614 23.8333C50.1614 29.1377 48.051 34.2247 44.2944 37.9755C40.5379 41.7262 35.4429 43.8333 30.1303 43.8333C24.8178 43.8333 19.7228 41.7262 15.9662 37.9755C12.2097 34.2247 10.0993 29.1377 10.0993 23.8333ZM20.6876 14.4052C23.192 11.9048 26.5886 10.5 30.1303 10.5C33.672 10.5 37.0687 11.9048 39.5731 14.4052C42.0774 16.9057 43.4844 20.2971 43.4844 23.8333C43.4844 27.3696 42.0774 30.7609 39.5731 33.2614C37.0687 35.7619 33.672 37.1667 30.1303 37.1667C26.5886 37.1667 23.192 35.7619 20.6876 33.2614C18.1832 30.7609 16.7763 27.3696 16.7763 23.8333C16.7763 20.2971 18.1832 16.9057 20.6876 14.4052Z" fill="#656565"/>
<path fill-rule="evenodd" clip-rule="evenodd" d="M46.3955 49.0333C43.7246 48.1936 40.9714 47.6416 38.1828 47.3867C36.6159 47.2379 35.0428 47.1645 33.4688 47.1667C6.76076 47.1667 0.0837402 67.1667 0.0837402 73.8333C0.0837402 78.28 2.30719 80.5 6.76076 80.5H34.9111C33.9212 78.4188 33.4276 76.1369 33.4688 73.8333C33.4688 67.1 35.9861 60.22 40.7468 54.4733C42.3693 52.5133 44.2589 50.68 46.3955 49.0333ZM26.7918 73.8333H6.76076C6.76076 72.1 7.85579 66.9667 11.8353 62.34C15.4738 58.1006 21.7957 53.9678 32.9302 53.8401L32.9347 53.8333V53.84L32.9302 53.8401C28.9813 59.7671 26.8481 66.7148 26.7918 73.8333Z" fill="#656565"/>
</svg>
