<svg width="107" height="80" viewBox="0 0 107 80" fill="none" xmlns="http://www.w3.org/2000/svg">
<path fill-rule="evenodd" clip-rule="evenodd" d="M100.239 80C100.239 80 106.916 80 106.916 73.3333C106.916 66.6667 100.239 46.6667 73.5312 46.6667C46.8231 46.6667 40.1461 66.6667 40.1461 73.3333C40.1461 80 46.8231 80 46.8231 80H100.239ZM46.97 73.3333C46.9207 73.3265 46.8717 73.3176 46.8231 73.3067C46.8298 71.5467 47.9382 66.44 51.8977 61.84C55.5834 57.5267 62.0601 53.3333 73.5312 53.3333C84.9956 53.3333 91.4723 57.5333 95.1647 61.84C99.1242 66.44 100.226 71.5533 100.239 73.3067L100.186 73.32C100.155 73.3252 100.124 73.3297 100.092 73.3333H46.97ZM73.5312 33.3333C77.0729 33.3333 80.4696 31.9286 82.9739 29.4281C85.4783 26.9276 86.8852 23.5362 86.8852 20C86.8852 16.4638 85.4783 13.0724 82.9739 10.5719C80.4696 8.07142 77.0729 6.66667 73.5312 6.66667C69.9895 6.66667 66.5928 8.07142 64.0885 10.5719C61.5841 13.0724 60.1772 16.4638 60.1772 20C60.1772 23.5362 61.5841 26.9276 64.0885 29.4281C66.5928 31.9286 69.9895 33.3333 73.5312 33.3333ZM93.5622 20C93.5622 22.6264 93.0441 25.2272 92.0375 27.6537C91.0308 30.0802 89.5553 32.285 87.6953 34.1421C85.8352 35.9993 83.627 37.4725 81.1967 38.4776C78.7665 39.4827 76.1617 40 73.5312 40C70.9007 40 68.2959 39.4827 65.8656 38.4776C63.4354 37.4725 61.2271 35.9993 59.3671 34.1421C57.507 32.285 56.0316 30.0802 55.0249 27.6537C54.0182 25.2272 53.5001 22.6264 53.5001 20C53.5001 14.6957 55.6105 9.60859 59.3671 5.85786C63.1236 2.10714 68.2186 0 73.5312 0C78.8438 0 83.9387 2.10714 87.6953 5.85786C91.4518 9.60859 93.5622 14.6957 93.5622 20ZM32.9349 53.3333L32.9304 53.3401L32.9349 53.34V53.3333Z" fill="#00A79D"/>
<path fill-rule="evenodd" clip-rule="evenodd" d="M10.0995 23.3333C10.0995 18.029 12.2099 12.9419 15.9665 9.1912C19.723 5.44047 24.818 3.33333 30.1306 3.33333C35.4431 3.33333 40.5381 5.44047 44.2947 9.1912C48.0512 12.9419 50.1616 18.029 50.1616 23.3333C50.1616 28.6377 48.0512 33.7247 44.2947 37.4755C40.5381 41.2262 35.4431 43.3333 30.1306 43.3333C24.818 43.3333 19.723 41.2262 15.9665 37.4755C12.2099 33.7247 10.0995 28.6377 10.0995 23.3333ZM20.6878 13.9052C23.1922 11.4048 26.5889 10 30.1306 10C33.6723 10 37.0689 11.4048 39.5733 13.9052C42.0777 16.4057 43.4846 19.7971 43.4846 23.3333C43.4846 26.8696 42.0777 30.2609 39.5733 32.7614C37.0689 35.2619 33.6723 36.6667 30.1306 36.6667C26.5889 36.6667 23.1922 35.2619 20.6878 32.7614C18.1835 30.2609 16.7765 26.8696 16.7765 23.3333C16.7765 19.7971 18.1835 16.4057 20.6878 13.9052Z" fill="#656565"/>
<path fill-rule="evenodd" clip-rule="evenodd" d="M46.3958 48.5333C43.7249 47.6936 40.9716 47.1416 38.1831 46.8867C36.6162 46.7379 35.043 46.6645 33.4691 46.6667C6.761 46.6667 0.0839844 66.6667 0.0839844 73.3333C0.0839844 77.78 2.30743 80 6.761 80H34.9113C33.9215 77.9188 33.4278 75.6369 33.4691 73.3333C33.4691 66.6 35.9863 59.72 40.747 53.9733C42.3695 52.0133 44.2591 50.18 46.3958 48.5333ZM26.7921 73.3333H6.761C6.761 71.6 7.85603 66.4667 11.8355 61.84C15.474 57.6006 21.796 53.4678 32.9304 53.3401L32.9349 53.3333V53.34L32.9304 53.3401C28.9815 59.2671 26.8484 66.2148 26.7921 73.3333Z" fill="#656565"/>
</svg>
