<svg width="516" height="500" viewBox="0 0 516 500" fill="none" xmlns="http://www.w3.org/2000/svg">
<path d="M4.88403 145.597C6.31274 150.879 5.6105 141.161 8.40737 129.287C11.2043 117.413 16.011 122.221 16.011 122.221" stroke="#263238" stroke-width="1.48791" stroke-linecap="round" stroke-linejoin="round"/>
<path d="M4.01172 133.463L12.7898 130.111" stroke="#263238" stroke-width="1.48791" stroke-linecap="round" stroke-linejoin="round"/>
<path d="M20.0419 126.081C20.0419 126.081 14.7993 136.239 22.7056 140.506" stroke="#263238" stroke-width="1.48791" stroke-linecap="round" stroke-linejoin="round"/>
<path d="M27.4885 123.237C27.4885 123.237 36.1576 127.752 30.7334 137.436" stroke="#263238" stroke-width="1.48791" stroke-linecap="round" stroke-linejoin="round"/>
<path d="M21.5559 129.512L27.7672 133.734" stroke="#263238" stroke-width="1.48791" stroke-linecap="round" stroke-linejoin="round"/>
<path d="M26.4236 127.65L21.5684 134.862" stroke="#263238" stroke-width="1.48791" stroke-linecap="round" stroke-linejoin="round"/>
<path d="M54.3157 235.751C55.4972 229.039 50.6189 222.706 43.4198 221.605C36.2207 220.503 29.4269 225.051 28.2455 231.762C27.064 238.473 31.9422 244.806 39.1413 245.908C46.3404 247.009 53.1342 242.462 54.3157 235.751Z" stroke="#263238" stroke-width="1.48791" stroke-linecap="round" stroke-linejoin="round"/>
<path d="M62.1514 251.951C70.0776 250.436 75.1852 243.218 73.5597 235.829C71.9341 228.44 64.1909 223.678 56.2647 225.194C48.3385 226.709 43.2309 233.927 44.8564 241.316C46.482 248.705 54.2252 253.467 62.1514 251.951Z" stroke="#263238" stroke-width="1.48791" stroke-linecap="round" stroke-linejoin="round"/>
<path d="M53.3146 228.669L47.2366 230.689" stroke="#263238" stroke-width="1.48791" stroke-linecap="round" stroke-linejoin="round"/>
<path d="M54.1619 231.005L45.4202 233.951" stroke="#263238" stroke-width="1.48791" stroke-linecap="round" stroke-linejoin="round"/>
<path d="M54.4885 233.827L44.7297 237.326" stroke="#263238" stroke-width="1.48791" stroke-linecap="round" stroke-linejoin="round"/>
<path d="M53.7993 237.676L44.9001 241.468" stroke="#263238" stroke-width="1.48791" stroke-linecap="round" stroke-linejoin="round"/>
<path d="M52.2248 240.633L45.4688 243.251" stroke="#263238" stroke-width="1.48791" stroke-linecap="round" stroke-linejoin="round"/>
<path d="M47.66 214.989C47.2846 213.86 42.9985 213.16 42.8169 216.117C42.6353 219.075 47.3331 216.614 48.6649 214.989C48.6649 214.989 46.2434 218.025 47.2604 218.623" stroke="#263238" stroke-width="1.48791" stroke-linecap="round" stroke-linejoin="round"/>
<path d="M71.3914 218.668L67.5896 226.039C67.5896 226.039 69.4905 222.348 71.5246 222.653C74.0309 223.07 72.36 226.897 69.3331 225.486" stroke="#263238" stroke-width="1.48791" stroke-linecap="round" stroke-linejoin="round"/>
<path d="M485.124 339.011L491.093 344.27" stroke="#263238" stroke-width="1.48791" stroke-linecap="round" stroke-linejoin="round"/>
<path d="M491.093 337.634L486.093 344.598" stroke="#263238" stroke-width="1.48791" stroke-linecap="round" stroke-linejoin="round"/>
<path d="M496.965 339.631L502.947 337.555" stroke="#263238" stroke-width="1.48791" stroke-linecap="round" stroke-linejoin="round"/>
<path d="M505.815 331.753L509.448 334.744" stroke="#263238" stroke-width="1.48791" stroke-linecap="round" stroke-linejoin="round"/>
<path d="M512.233 328.153L507.632 342.871" stroke="#263238" stroke-width="1.48791" stroke-linecap="round" stroke-linejoin="round"/>
<path d="M233.598 256.333L249.665 246.028L270.938 247.417L272.27 272.564L256.651 282.971L237.375 281.661L233.598 256.333Z" stroke="#263238" stroke-width="1.48791" stroke-linecap="round" stroke-linejoin="round"/>
<path d="M237.376 281.661L252.934 271.221L272.27 272.564" stroke="#263238" stroke-width="1.48791" stroke-linecap="round" stroke-linejoin="round"/>
<path d="M252.934 271.221L249.665 246.028" stroke="#263238" stroke-width="1.48791" stroke-linecap="round" stroke-linejoin="round"/>
<path d="M233.598 256.333L254.822 258.625L270.938 247.417" stroke="#263238" stroke-width="1.48791" stroke-linecap="round" stroke-linejoin="round"/>
<path d="M254.823 258.625L256.651 282.971" stroke="#263238" stroke-width="1.48791" stroke-linecap="round" stroke-linejoin="round"/>
<path d="M421.122 171.85L414.003 192.471L436.16 189.684L421.122 171.85Z" stroke="#263238" stroke-width="1.48791" stroke-linecap="round" stroke-linejoin="round"/>
<path d="M421.122 171.85L425.081 190.959" stroke="#263238" stroke-width="1.48791" stroke-linecap="round" stroke-linejoin="round"/>
<path d="M424.452 187.9L427.043 187.516L427.648 190.755" stroke="#263238" stroke-width="1.48791" stroke-linecap="round" stroke-linejoin="round"/>
<path d="M142.088 360.558L153.154 365.625" stroke="#263238" stroke-width="1.48791" stroke-linecap="round" stroke-linejoin="round"/>
<path d="M149.583 356.687L146.411 367.466" stroke="#263238" stroke-width="1.48791" stroke-linecap="round" stroke-linejoin="round"/>
<path d="M151.121 351.426C151.302 351.251 151.525 351.118 151.772 351.038C152.018 350.957 152.282 350.932 152.541 350.964C152.8 350.996 153.047 351.084 153.263 351.221C153.479 351.358 153.658 351.541 153.784 351.754C154.898 353.379 152.719 356.788 152.719 356.788L157.162 355.208" stroke="#263238" stroke-width="1.48791" stroke-linecap="round" stroke-linejoin="round"/>
<path d="M228.973 5.51318C239.543 11.0551 227.436 24.5995 227.436 32.5005C227.436 40.4014 239.543 39.2727 245.597 41.5301C248.019 41.5301 252.862 41.5301 252.729 47.2639" stroke="#263238" stroke-width="1.48791" stroke-linecap="round" stroke-linejoin="round"/>
<path d="M217.192 12.7031C219.033 22.0375 230.511 18.7304 237.558 20.8636C249.665 24.5319 242.945 36.1801 239.337 43.2232C237.17 47.422 235.015 53.3138 238.889 57.2981" stroke="#263238" stroke-width="1.48791" stroke-linecap="round" stroke-linejoin="round"/>
<path d="M218.742 16.3263L231.346 6.56299" stroke="#263238" stroke-width="1.48791" stroke-linecap="round" stroke-linejoin="round"/>
<path d="M223.682 19.2379L233.174 11.9014" stroke="#263238" stroke-width="1.48791" stroke-linecap="round" stroke-linejoin="round"/>
<path d="M229.264 26.6652L237.279 20.7959" stroke="#263238" stroke-width="1.48791" stroke-linecap="round" stroke-linejoin="round"/>
<path d="M227.605 35.4461L243.272 24.9492" stroke="#263238" stroke-width="1.48791" stroke-linecap="round" stroke-linejoin="round"/>
<path d="M233.611 39.5433L244.532 32.0713" stroke="#263238" stroke-width="1.48791" stroke-linecap="round" stroke-linejoin="round"/>
<path d="M238.26 55.4245L251.905 45.063" stroke="#263238" stroke-width="1.48791" stroke-linecap="round" stroke-linejoin="round"/>
<path d="M238.598 47.2753L247.498 41.4399" stroke="#263238" stroke-width="1.48791" stroke-linecap="round" stroke-linejoin="round"/>
<path d="M60.4346 366.181C73.4356 361.333 79.7595 347.578 74.5595 335.459C69.3595 323.339 54.6046 317.444 41.6036 322.291C28.6026 327.139 22.2787 340.893 27.4787 353.013C32.6787 365.133 47.4336 371.028 60.4346 366.181Z" stroke="#263238" stroke-width="1.48791" stroke-linecap="round" stroke-linejoin="round"/>
<path d="M57.395 321.369C66.2336 311.696 73.7525 306.222 76.6462 308.005C81.0534 310.703 73.1471 329.123 58.9932 349.135C44.8393 369.147 29.7894 383.188 25.3822 380.479C22.4763 378.707 24.9221 370.107 30.9759 358.718" stroke="#263238" stroke-width="1.48791" stroke-linecap="round" stroke-linejoin="round"/>
<path d="M26.2051 349.09C13.8794 345.783 6.00942 341.923 6.50584 338.842C7.22019 333.966 28.5176 332.837 53.9559 336.392C79.3942 339.948 99.3961 346.686 98.6333 351.54C98.0885 354.926 87.7364 356.472 73.0255 355.953" stroke="#263238" stroke-width="1.48791" stroke-linecap="round" stroke-linejoin="round"/>
<path d="M29.4384 331.968C20.1396 316.324 15.4903 304.123 18.6383 302.215C22.7791 299.721 38.7855 315.906 54.3923 338.334C69.9992 360.761 79.2858 381.032 75.157 383.538C72.4207 385.186 64.4902 378.662 54.913 367.556" stroke="#263238" stroke-width="1.48791" stroke-linecap="round" stroke-linejoin="round"/>
<path d="M80.2175 318.232C79.766 318.873 79.1207 319.376 78.3631 319.676C77.6055 319.976 76.7695 320.06 75.9607 319.917C75.1519 319.774 74.4066 319.412 73.8189 318.874C73.2311 318.337 72.8273 317.65 72.6584 316.899C72.4896 316.148 72.5632 315.367 72.87 314.655C73.1768 313.943 73.703 313.331 74.3822 312.898C75.0615 312.465 75.8632 312.228 76.6863 312.22C77.5094 312.211 78.3168 312.429 79.0067 312.848C79.4662 313.126 79.8622 313.487 80.1718 313.909C80.4815 314.331 80.6988 314.805 80.8113 315.305C80.9238 315.806 80.9292 316.321 80.8273 316.824C80.7254 317.326 80.5182 317.804 80.2175 318.232Z" fill="#263238"/>
<path d="M66.4272 377.703C65.9757 378.344 65.3305 378.847 64.5728 379.147C63.8152 379.447 62.9792 379.531 62.1704 379.388C61.3617 379.246 60.6163 378.883 60.0286 378.346C59.4409 377.808 59.0371 377.121 58.8682 376.37C58.6993 375.619 58.7729 374.838 59.0797 374.126C59.3865 373.414 59.9127 372.803 60.592 372.369C61.2712 371.936 62.073 371.7 62.896 371.691C63.7191 371.682 64.5266 371.9 65.2165 372.319C65.6759 372.598 66.0719 372.958 66.3816 373.38C66.6912 373.802 66.9085 374.276 67.021 374.776C67.1335 375.277 67.139 375.793 67.0371 376.295C66.9352 376.797 66.7279 377.275 66.4272 377.703Z" fill="#263238"/>
<path d="M44.1736 337.352C43.7221 337.993 43.0768 338.496 42.3192 338.796C41.5616 339.096 40.7256 339.18 39.9168 339.037C39.108 338.895 38.3627 338.532 37.7749 337.995C37.1872 337.457 36.7834 336.77 36.6145 336.019C36.4456 335.268 36.5192 334.487 36.826 333.775C37.1328 333.063 37.6591 332.452 38.3383 332.018C39.0175 331.585 39.8193 331.349 40.6424 331.34C41.4654 331.331 42.2729 331.549 42.9628 331.968C43.8882 332.533 44.5355 333.417 44.7625 334.426C44.9894 335.436 44.7776 336.488 44.1736 337.352Z" fill="#263238"/>
<path d="M309.707 168.407H323.97L331.102 156.895L323.97 145.382H309.707L302.576 156.895L309.707 168.407Z" stroke="#263238" stroke-width="1.48791" stroke-linecap="round" stroke-linejoin="round"/>
<path d="M307.637 193.679L300.506 182.167H286.243" stroke="#263238" stroke-width="1.48791" stroke-linecap="round" stroke-linejoin="round"/>
<path d="M288.156 156.895H302.418L309.55 145.382L302.418 133.858H288.156L281.024 145.382L288.156 156.895Z" stroke="#263238" stroke-width="1.48791" stroke-linecap="round" stroke-linejoin="round"/>
<path d="M309.707 145.382H323.97L331.102 133.858L323.97 122.345H309.707L302.576 133.858L309.707 145.382Z" stroke="#263238" stroke-width="1.48791" stroke-linecap="round" stroke-linejoin="round"/>
<path d="M309.55 147.165C310.606 147.165 311.463 146.367 311.463 145.382C311.463 144.397 310.606 143.599 309.55 143.599C308.493 143.599 307.637 144.397 307.637 145.382C307.637 146.367 308.493 147.165 309.55 147.165Z" fill="#263238"/>
<path d="M279.765 122.989C280.821 122.989 281.678 122.19 281.678 121.205C281.678 120.22 280.821 119.422 279.765 119.422C278.708 119.422 277.852 120.22 277.852 121.205C277.852 122.19 278.708 122.989 279.765 122.989Z" fill="#263238"/>
<path d="M305.723 193.679C305.723 193.326 305.836 192.981 306.046 192.688C306.256 192.395 306.555 192.166 306.904 192.031C307.254 191.896 307.639 191.861 308.01 191.93C308.381 191.999 308.722 192.168 308.989 192.418C309.257 192.667 309.439 192.985 309.513 193.331C309.586 193.677 309.549 194.035 309.404 194.361C309.259 194.687 309.014 194.966 308.699 195.162C308.385 195.358 308.015 195.462 307.636 195.462C307.385 195.462 307.136 195.416 306.904 195.326C306.672 195.237 306.461 195.105 306.284 194.94C306.106 194.774 305.965 194.578 305.869 194.361C305.773 194.145 305.723 193.913 305.723 193.679Z" fill="#263238"/>
<path d="M286.242 183.95C287.299 183.95 288.155 183.151 288.155 182.166C288.155 181.181 287.299 180.383 286.242 180.383C285.186 180.383 284.329 181.181 284.329 182.166C284.329 183.151 285.186 183.95 286.242 183.95Z" fill="#263238"/>
<path d="M344.904 134.185C344.904 133.83 345.018 133.482 345.23 133.187C345.442 132.892 345.743 132.662 346.096 132.526C346.448 132.391 346.836 132.356 347.21 132.426C347.583 132.496 347.926 132.668 348.195 132.92C348.464 133.172 348.646 133.493 348.719 133.842C348.792 134.191 348.752 134.552 348.605 134.88C348.457 135.208 348.208 135.487 347.89 135.683C347.572 135.879 347.199 135.982 346.817 135.98C346.565 135.98 346.315 135.933 346.082 135.843C345.85 135.753 345.638 135.62 345.46 135.454C345.283 135.287 345.142 135.089 345.046 134.871C344.951 134.653 344.903 134.42 344.904 134.185Z" fill="#263238"/>
<path d="M300.36 183.95C301.416 183.95 302.273 183.151 302.273 182.166C302.273 181.181 301.416 180.383 300.36 180.383C299.303 180.383 298.447 181.181 298.447 182.166C298.447 183.151 299.303 183.95 300.36 183.95Z" fill="#263238"/>
<path d="M329.189 134.185C329.189 133.83 329.302 133.483 329.513 133.188C329.725 132.893 330.026 132.663 330.377 132.527C330.729 132.391 331.116 132.356 331.49 132.425C331.863 132.494 332.206 132.665 332.475 132.916C332.745 133.167 332.928 133.487 333.002 133.835C333.077 134.183 333.038 134.544 332.893 134.872C332.747 135.2 332.5 135.48 332.184 135.677C331.867 135.875 331.495 135.98 331.114 135.98C330.604 135.98 330.114 135.791 329.753 135.454C329.392 135.118 329.189 134.661 329.189 134.185Z" fill="#263238"/>
<path d="M307.637 168.419C307.634 168.063 307.745 167.714 307.956 167.417C308.167 167.121 308.467 166.889 308.819 166.752C309.172 166.614 309.56 166.578 309.934 166.647C310.309 166.716 310.653 166.887 310.923 167.138C311.193 167.39 311.376 167.711 311.45 168.06C311.524 168.409 311.485 168.771 311.338 169.099C311.191 169.428 310.942 169.708 310.624 169.904C310.305 170.101 309.931 170.204 309.55 170.202C309.043 170.199 308.558 170.01 308.2 169.676C307.842 169.343 307.64 168.891 307.637 168.419Z" fill="#263238"/>
<path d="M331.114 134.163H346.817" stroke="#263238" stroke-width="1.48791" stroke-linecap="round" stroke-linejoin="round"/>
<path d="M309.55 168.419L300.36 182.167" stroke="#263238" stroke-width="1.48791" stroke-linecap="round" stroke-linejoin="round"/>
<path d="M288.155 133.858L279.765 121.205" stroke="#263238" stroke-width="1.48791" stroke-linecap="round" stroke-linejoin="round"/>
<path d="M389.315 88.473C390.96 83.2894 394.389 78.7543 399.073 75.5672C403.756 72.3802 409.435 70.7182 415.232 70.8376C421.03 70.9569 426.624 72.8511 431.152 76.2278C435.68 79.6046 438.891 84.2764 440.289 89.5226" stroke="#263238" stroke-width="1.48791" stroke-linecap="round" stroke-linejoin="round"/>
<path d="M411.618 119.896C405.176 119.209 399.23 116.336 394.914 111.825C390.598 107.315 388.213 101.481 388.213 95.437" stroke="#263238" stroke-width="1.48791" stroke-linecap="round" stroke-linejoin="round"/>
<path d="M441.051 95.437C441.051 101.964 438.271 108.224 433.321 112.84C428.372 117.456 421.658 120.051 414.656 120.054" stroke="#263238" stroke-width="1.48791" stroke-linecap="round" stroke-linejoin="round"/>
<path d="M442.553 79.8271C450.81 78.8451 456.343 79.3756 457.203 81.6781C458.91 86.2607 441.245 96.1368 417.744 103.744C394.243 111.352 373.817 113.79 372.098 109.196C371.19 106.747 375.815 102.785 383.903 98.4619" stroke="#263238" stroke-width="1.48791" stroke-linecap="round" stroke-linejoin="round"/>
<path d="M300.36 62.9639L302.89 67.7383L308.545 68.5058L304.452 72.2305L305.421 77.479L300.36 74.9958L295.299 77.479L296.267 72.2305L292.175 68.5058L297.829 67.7383L300.36 62.9639Z" stroke="#263238" stroke-width="1.48791" stroke-linecap="round" stroke-linejoin="round"/>
<path d="M121.602 50.2434C121.598 54.4883 119.789 58.5587 116.57 61.5613C113.352 64.564 108.986 66.2537 104.433 66.2597C103.876 66.2597 103.331 66.2371 102.798 66.192C99.4846 65.8989 96.3334 64.7148 93.7279 62.7835C91.1225 60.8523 89.175 58.257 88.1221 55.3132C87.0692 52.3695 86.9563 49.204 87.7972 46.2015C88.638 43.1991 90.3963 40.489 92.8584 38.4006C95.3206 36.3123 98.3804 34.9357 101.666 34.4382C104.952 33.9406 108.322 34.3436 111.366 35.598C114.411 36.8524 116.999 38.9043 118.816 41.5043C120.633 44.1043 121.601 47.1403 121.602 50.2434V50.2434Z" stroke="#263238" stroke-width="1.48791" stroke-linecap="round" stroke-linejoin="round"/>
<path d="M118.853 53.133C118.856 53.6246 118.702 54.1058 118.41 54.5156C118.119 54.9255 117.704 55.2455 117.218 55.4352C116.731 55.6248 116.195 55.6756 115.678 55.5811C115.16 55.4865 114.684 55.2509 114.311 54.9041C113.937 54.5573 113.682 54.1149 113.578 53.6329C113.474 53.1509 113.526 52.651 113.728 52.1966C113.929 51.7422 114.27 51.3538 114.709 51.0804C115.147 50.8071 115.662 50.6611 116.19 50.6611C116.894 50.6611 117.57 50.9212 118.069 51.3844C118.568 51.8477 118.85 52.4764 118.853 53.133V53.133Z" stroke="#263238" stroke-width="1.48791" stroke-linecap="round" stroke-linejoin="round"/>
<path d="M94.9407 59.4312C94.9417 60.0195 94.8033 60.6008 94.5354 61.1334C94.2675 61.6661 93.8767 62.137 93.391 62.5126C91.1332 60.7752 89.3942 58.5243 88.342 55.9774C89.0083 55.596 89.7759 55.3966 90.5578 55.4018C91.1305 55.3943 91.699 55.493 92.2305 55.6921C92.7619 55.8913 93.2456 56.1869 93.6534 56.5618C94.0612 56.9367 94.385 57.3835 94.606 57.8761C94.827 58.3687 94.9408 58.8973 94.9407 59.4312Z" stroke="#263238" stroke-width="1.48791" stroke-linecap="round" stroke-linejoin="round"/>
<path d="M116.19 61.9485C113.015 64.7517 108.807 66.3113 104.434 66.3052C103.877 66.3052 103.332 66.2827 102.799 66.2375C102.702 65.8032 102.653 65.3606 102.654 64.9169C102.655 63.4164 103.199 61.9602 104.199 60.7841C105.198 59.6081 106.595 58.7813 108.162 58.4377C109.728 58.0941 111.374 58.2539 112.831 58.8911C114.288 59.5283 115.472 60.6056 116.19 61.9485V61.9485Z" stroke="#263238" stroke-width="1.48791" stroke-linecap="round" stroke-linejoin="round"/>
<path d="M100.268 43.8889C102.448 43.8889 104.215 42.2415 104.215 40.2094C104.215 38.1772 102.448 36.5298 100.268 36.5298C98.0882 36.5298 96.321 38.1772 96.321 40.2094C96.321 42.2415 98.0882 43.8889 100.268 43.8889Z" stroke="#263238" stroke-width="1.48791" stroke-linecap="round" stroke-linejoin="round"/>
<path d="M103.925 50.6614C103.925 50.9985 103.818 51.328 103.617 51.6083C103.416 51.8885 103.13 52.107 102.796 52.236C102.462 52.365 102.095 52.3987 101.74 52.333C101.385 52.2672 101.059 52.1049 100.804 51.8665C100.548 51.6282 100.374 51.3245 100.303 50.9939C100.233 50.6633 100.269 50.3206 100.407 50.0092C100.546 49.6977 100.78 49.4315 101.081 49.2443C101.382 49.057 101.735 48.957 102.097 48.957C102.337 48.957 102.574 49.0011 102.796 49.0868C103.018 49.1724 103.22 49.298 103.389 49.4562C103.559 49.6145 103.694 49.8024 103.786 50.0092C103.878 50.2159 103.925 50.4376 103.925 50.6614Z" stroke="#263238" stroke-width="1.48791" stroke-linecap="round" stroke-linejoin="round"/>
<path d="M118.37 40.8979C117.889 41.0448 117.386 41.1173 116.88 41.1124C116.22 41.1124 115.565 40.9909 114.955 40.7548C114.344 40.5187 113.79 40.1726 113.323 39.7365C112.856 39.3003 112.487 38.7826 112.235 38.213C111.983 37.6434 111.854 37.0331 111.856 36.417C111.843 36.2215 111.843 36.0255 111.856 35.8301C114.449 36.9827 116.689 38.7256 118.37 40.8979V40.8979Z" stroke="#263238" stroke-width="1.48791" stroke-linecap="round" stroke-linejoin="round"/>
<path d="M513.141 236.096L514.993 232.213L511.991 230.678C512.101 229.995 512.122 229.301 512.051 228.613L515.127 227.213L513.492 223.251L510.199 224.132C509.757 223.579 509.245 223.079 508.673 222.642L509.799 219.617L505.634 217.89L503.975 220.689C503.24 220.605 502.495 220.605 501.76 220.689L500.27 217.822L496.009 219.346L496.965 222.405C496.371 222.823 495.831 223.304 495.355 223.838L492.122 222.789L490.318 226.615L493.321 228.161C493.21 228.845 493.189 229.538 493.26 230.227L490.173 231.615L491.807 235.588L495.1 234.696C495.545 235.25 496.057 235.754 496.626 236.198L495.512 239.211L499.677 240.938L501.324 238.139C502.057 238.242 502.801 238.261 503.54 238.195L505.041 241.074L509.291 239.55L508.346 236.48C508.936 236.065 509.473 235.588 509.944 235.058L513.141 236.096ZM500.476 233.929C499.52 233.532 498.712 232.881 498.153 232.056C497.594 231.231 497.31 230.271 497.337 229.296C497.364 228.321 497.7 227.375 498.303 226.578C498.907 225.781 499.75 225.169 500.726 224.819C501.703 224.468 502.769 224.396 503.79 224.61C504.81 224.825 505.74 225.316 506.461 226.023C507.182 226.73 507.662 227.621 507.84 228.582C508.018 229.543 507.887 230.532 507.462 231.423C506.89 232.617 505.834 233.551 504.524 234.021C503.215 234.491 501.759 234.458 500.476 233.929V233.929Z" stroke="#263238" stroke-width="1.48791" stroke-linecap="round" stroke-linejoin="round"/>
<path d="M491.008 256.018L493.527 250.747L489.458 248.647C489.603 247.72 489.628 246.78 489.531 245.848L493.72 243.952L491.529 238.568L487.061 239.776C486.464 239.021 485.769 238.338 484.991 237.744L486.516 233.635L480.814 231.254L478.574 235.046C477.579 234.913 476.572 234.887 475.571 234.967L473.537 231.073L467.749 233.15L469.045 237.304C468.241 237.871 467.51 238.522 466.866 239.245L462.47 237.868L459.952 243.139L464.02 245.238C463.875 246.165 463.851 247.105 463.948 248.038L459.758 249.934L461.986 255.318L466.454 254.121C467.054 254.873 467.749 255.555 468.524 256.153L466.999 260.25L472.665 262.598L474.905 258.794C475.899 258.933 476.907 258.959 477.908 258.873L479.942 262.767L485.729 260.702L484.434 256.537C485.238 255.974 485.969 255.326 486.613 254.607L491.008 256.018ZM473.815 253.072C472.516 252.532 471.417 251.645 470.658 250.522C469.9 249.4 469.515 248.094 469.553 246.768C469.592 245.442 470.051 244.156 470.873 243.073C471.695 241.991 472.844 241.16 474.172 240.686C475.501 240.212 476.951 240.116 478.339 240.41C479.726 240.705 480.989 241.376 481.967 242.34C482.945 243.303 483.594 244.515 483.833 245.823C484.072 247.13 483.889 248.475 483.308 249.686C482.924 250.489 482.373 251.215 481.688 251.82C481.003 252.426 480.197 252.899 479.315 253.214C478.433 253.528 477.494 253.678 476.55 253.653C475.606 253.629 474.677 253.431 473.815 253.072Z" stroke="#263238" stroke-width="1.48791" stroke-linecap="round" stroke-linejoin="round"/>
<path d="M240.016 205.982C238.357 208.912 236.484 211.733 234.41 214.425C223.653 228.367 207.846 238.209 189.91 242.133C171.974 246.056 153.121 243.795 136.834 235.768C135.151 234.944 133.505 234.064 131.931 233.138C130.357 232.213 128.819 231.265 127.342 230.249C125.55 229.041 123.831 227.755 122.184 226.411C122.079 226.338 121.981 226.255 121.893 226.163C111.164 217.311 103.322 205.825 99.2627 193.015C95.2037 180.206 95.0917 166.59 98.9394 153.725C102.787 140.859 110.439 129.261 121.022 120.257C131.605 111.253 144.691 105.205 158.785 102.805C172.88 100.405 187.414 101.75 200.728 106.684C214.042 111.619 225.598 119.946 234.077 130.713C242.555 141.48 247.614 154.253 248.675 167.573C249.736 180.893 246.756 194.222 240.077 206.038L240.016 205.982Z" fill="#19A89D"/>
<g opacity="0.6">
<path d="M240.016 205.982C238.357 208.913 236.484 211.734 234.41 214.425L232.933 213.296L230.391 212.043L227.715 210.734L228.163 207.72L228.017 205C227.86 202.28 229.967 204.504 231.65 203.68C232.962 202.805 234.023 201.642 234.737 200.294C234.737 200.294 235.948 196.67 235.548 195.214C234.896 193.537 234.128 191.9 233.248 190.316L228.913 195.959L225.281 195.7L221.842 194.007L221.394 189.548L219.627 188.691L218.888 186.128L209.335 183.634L208.246 181.851C207.156 180.067 202.761 179.153 202.761 179.153L203.838 176.828L205.533 174.232C207.241 171.636 209.008 175.947 209.008 175.947L211.03 176.929L214.784 173.995L215.777 169.785L221.891 170.112C221.771 169.542 221.864 168.951 222.155 168.438C222.446 167.925 222.917 167.52 223.489 167.29C225.523 166.545 224.627 162.426 223.852 160.902C223.077 159.378 220.22 160.608 220.22 160.608C220.22 160.608 217.108 156.195 216.685 154.434C216.261 152.674 222.617 153.306 225.342 151.534C228.066 149.762 227.134 146.24 225.802 146.161C224.47 146.082 228.405 138.147 235.972 140.326C238.079 140.935 239.411 140.721 240.234 140.043C245.912 150.234 248.857 161.555 248.82 173.038C248.782 184.521 245.761 195.825 240.016 205.982Z" fill="white"/>
<path d="M187.069 175.451L184.478 178.487C184.478 178.487 183.376 176.038 181.802 177.358L179.38 179.367L177.625 183.95L174.477 185.846L172.551 184.909L170.735 184.006L168.762 183.036L166.873 186.422L165.335 189.131C166.085 190.46 167.017 191.694 168.108 192.799L171.45 198.296L175.518 200.214C177.215 200.273 178.903 200.462 180.567 200.779L183.364 202.145L182.371 207.788C182.371 207.788 180.264 210.982 178.86 210.102L177.443 209.233L175.143 216.66L175.046 220.746C175.046 220.746 173.677 221.276 172.297 221.705C170.917 222.134 171.789 221.908 168.895 222.743C166.001 223.579 166.231 223.545 163.882 224.165C161.88 224.819 159.953 225.658 158.131 226.671L158.337 230.599L152.804 231.355L149.704 229.82L150.467 227.337L150.83 223.454L150.406 220.554L149.075 217.991L152.804 214.842L151.98 212.867L149.862 208.939L145.382 211.197L143.081 212.325L137.875 210.147L137.306 207.201L135.562 201.907L133.94 198.612L131.058 194.977L130.332 191.851L131.954 188.984L132.814 187.471L130.162 184.142L129.436 181.771L124.968 177.99C124.968 177.99 126.264 177.911 125.973 176.229C125.683 174.548 128.528 171.715 128.528 171.715C130.138 172.505 134.969 175.643 134.969 175.643L139.195 176.184C139.195 176.184 140.042 176.184 140.866 174.694C141.827 173.324 142.957 172.063 144.232 170.936C144.232 170.936 142.282 164.626 143.675 163.78C145.067 162.933 146.484 158.802 146.484 158.802L147.598 156.827C147.598 156.827 144.97 155.755 144.474 154.457C143.977 153.159 137.5 154.886 137.5 154.886L133.032 157.775L129.509 160.315L127.983 163.012C127.983 163.012 124.871 159.525 124.859 161.477C124.622 163.479 124.151 165.451 123.455 167.358C123.455 167.358 124.096 167.674 123.249 169.186C122.401 170.699 121.481 170.62 119.617 170.834C117.186 170.857 114.757 170.702 112.352 170.372C112.352 170.372 111.141 174.548 111.977 175.27L112.8 175.97C112.8 175.97 111.504 179.006 110.221 178.374L107.097 176.839L102.726 178.487L97.8833 183.476L96.8057 183.273C93.8375 164.713 98.8487 145.812 110.75 130.678C122.651 115.545 140.48 105.403 160.359 102.458C160.637 103.586 160.94 104.647 160.94 104.647L159.729 110.223L158.18 112.977L156.848 115.336L154.971 118.654L159.778 122.785L158.749 127.673L156.146 129.196L155.395 132.865L159.863 141.003L161.073 144.197C160.326 145.726 159.957 147.393 159.996 149.073C159.996 149.073 160.541 152.12 162.926 153.328C165.311 154.536 168.447 155.958 168.447 155.958L168.193 160.473L167.115 161.602L168.907 166.466C174.368 168.464 173.847 170.134 174.368 168.464L174.9 166.805L178.617 165.552L183.352 170.823C183.902 170.816 184.446 170.939 184.933 171.179C185.42 171.42 185.833 171.771 186.136 172.2C187.517 173.825 189.672 172.414 187.069 175.451Z" fill="white"/>
<path d="M122.898 214.763C123.031 216.366 120.852 218.375 120.852 218.375L122.632 219.244L123.176 223.759L121.833 226.152C112.309 218.309 105.046 208.367 100.705 197.234L101.673 192.449L105.947 191.884C105.947 191.884 109.773 189.514 111.468 190.146C113.163 190.778 114.713 194.661 114.713 194.661C114.713 194.661 115.924 199.898 115.767 199.797H115.694H115.791L117.534 200.654L118.031 202.72L115.609 207.009H111.71C111.71 207.009 110.936 206.625 110.863 208.51C110.926 209.164 111.139 209.798 111.488 210.369C111.837 210.939 112.313 211.433 112.885 211.817L117.098 210.813L118.224 206.749L122.365 205.993C122.365 205.993 121.772 208.488 122.741 208.962L123.721 209.447L124.302 212.427C123.869 212.667 123.511 213.009 123.264 213.419C123.017 213.83 122.891 214.293 122.898 214.763Z" fill="white"/>
<path d="M142.924 221.152C142.549 220.181 142.391 219.335 139.812 218.071C137.234 216.807 137.391 217.258 136.374 218.308C135.936 218.848 135.338 219.256 134.654 219.483C133.969 219.71 133.229 219.744 132.524 219.583C130.829 219.233 131.712 221.017 131.712 221.017L132.124 225.836L127.342 230.238C128.819 231.254 130.348 232.217 131.93 233.128L132.947 230.216L140.89 232.383C139.207 231.92 140.2 229.775 140.2 229.775L138.505 228.94C138.505 228.94 143.299 222.1 142.924 221.152Z" fill="white"/>
<path d="M192.953 196.095L190.35 193.646L187.372 194.515L186.161 196.772L185.253 198.397L186.463 200.655L188.885 203.398L190.265 200.937C190.265 200.937 194.103 200.937 196.113 198.871C198.123 196.806 192.953 196.095 192.953 196.095Z" fill="white"/>
<path d="M185.302 185.045L190.145 187.415L190.338 186.354C190.591 185.504 191.037 184.715 191.646 184.04L187.941 180.383L185.302 185.045Z" fill="white"/>
<path d="M183.655 237.586L182.263 235.678L180.64 234.888H175.688L172.867 239.877C172.867 239.877 170.167 239.538 166.619 239.245C163.072 238.952 163.944 240.317 163.944 240.317L163.023 243.455C171.974 244.482 181.049 244.028 189.83 242.112C188.809 241.449 187.75 240.838 186.658 240.283L183.655 237.586Z" fill="white"/>
</g>
<path d="M240.016 205.982C238.357 208.912 236.484 211.733 234.41 214.425C223.653 228.367 207.846 238.209 189.91 242.133C171.974 246.056 153.121 243.795 136.834 235.768C135.151 234.944 133.505 234.064 131.931 233.138C130.357 232.213 128.819 231.265 127.342 230.249C125.55 229.041 123.831 227.755 122.184 226.411C122.079 226.338 121.981 226.255 121.893 226.163V226.163C111.164 217.311 103.322 205.825 99.2627 193.015C95.2037 180.206 95.0917 166.59 98.9394 153.725C102.787 140.859 110.439 129.261 121.022 120.257C131.605 111.253 144.691 105.205 158.785 102.805C172.88 100.405 187.414 101.75 200.728 106.684C214.042 111.619 225.598 119.946 234.077 130.713C242.555 141.48 247.614 154.253 248.675 167.573C249.736 180.893 246.756 194.222 240.077 206.038L240.016 205.982Z" stroke="#263238" stroke-width="1.48791" stroke-linecap="round" stroke-linejoin="round"/>
<path d="M189.83 242.111C181.049 244.027 171.974 244.482 163.023 243.455L163.944 240.317C163.944 240.317 163.072 238.951 166.619 239.244C170.167 239.538 172.867 239.877 172.867 239.877L175.688 234.888H180.64L182.263 235.678L183.655 237.585L186.658 240.283C187.75 240.838 188.809 241.448 189.83 242.111Z" stroke="#263238" stroke-width="1.48791" stroke-linecap="round" stroke-linejoin="round"/>
<path d="M240.283 140.054C239.459 140.731 238.127 140.946 236.021 140.336C228.453 138.158 224.53 146.081 225.85 146.172C227.17 146.262 228.102 149.829 225.39 151.544C222.678 153.26 216.309 152.673 216.733 154.445C217.157 156.217 220.268 160.619 220.268 160.619C220.268 160.619 223.053 159.4 223.84 160.913C224.627 162.425 225.523 166.556 223.489 167.301C222.917 167.53 222.446 167.935 222.155 168.449C221.864 168.962 221.771 169.553 221.891 170.123L215.777 169.795L214.784 174.006L211.03 176.94L209.008 175.958C209.008 175.958 207.241 171.647 205.533 174.243L203.838 176.839L202.761 179.164C202.761 179.164 207.156 180.078 208.246 181.861L209.335 183.645L218.888 186.139L219.627 188.701L221.394 189.559L221.842 194.017L225.402 195.756L229.034 196.015L233.369 190.372C234.249 191.956 235.018 193.593 235.669 195.27C236.093 196.726 234.858 200.349 234.858 200.349C234.144 201.698 233.083 202.861 231.771 203.736C230.039 204.559 227.921 202.336 228.138 205.056L228.284 207.776L227.836 210.79L230.512 212.099L233.054 213.352L234.531 214.481" stroke="#263238" stroke-width="1.48791" stroke-linecap="round" stroke-linejoin="round"/>
<path d="M96.9033 183.273L97.9809 183.476L102.824 178.487L107.195 176.839L110.319 178.374C111.602 179.006 112.898 175.97 112.898 175.97L112.074 175.27C111.239 174.548 112.45 170.371 112.45 170.371C114.854 170.702 117.283 170.857 119.714 170.834C121.627 170.62 122.535 170.687 123.347 169.186C124.158 167.685 123.552 167.358 123.552 167.358C124.249 165.451 124.719 163.479 124.957 161.477C124.957 159.525 128.081 163.012 128.081 163.012L129.606 160.315L133.021 157.786L137.488 154.897C137.488 154.897 143.966 153.159 144.462 154.468C144.959 155.777 147.586 156.838 147.586 156.838L146.472 158.814C146.472 158.814 145.044 162.922 143.663 163.791C142.283 164.66 144.22 170.947 144.22 170.947C142.946 172.074 141.816 173.335 140.854 174.706C140.007 176.218 139.183 176.196 139.183 176.196L134.958 175.654C134.958 175.654 130.115 172.516 128.517 171.726C128.517 171.726 125.671 174.559 125.962 176.241C126.252 177.922 124.957 178.001 124.957 178.001L129.425 181.783L130.151 184.153L132.803 187.483L131.943 188.995L130.321 191.862L131.047 194.988L133.929 198.623L135.563 201.907L137.331 207.224L137.9 210.17L143.106 212.348L145.407 211.219L149.887 208.962L152.005 212.89L152.829 214.865L149.1 218.014L150.431 220.576L150.855 223.477L150.492 227.36L149.729 229.843L152.829 231.378L158.362 230.633L158.156 226.694C159.978 225.681 161.905 224.841 163.907 224.188C166.256 223.567 166.026 223.601 168.92 222.766C171.814 221.931 170.93 222.156 172.322 221.727C173.715 221.298 175.071 220.768 175.071 220.768L175.168 216.682L177.468 209.255L178.885 210.124C180.289 211.005 182.396 207.81 182.396 207.81L183.389 202.167L180.531 200.779C178.868 200.462 177.179 200.273 175.482 200.214L171.499 198.262L168.157 192.765C167.066 191.66 166.134 190.426 165.384 189.097L166.922 186.388L168.811 183.002L170.785 183.972L172.601 184.875L174.526 185.812L177.674 183.916L179.429 179.333L181.851 177.324C183.425 175.992 184.527 178.453 184.527 178.453L187.118 175.417C189.721 172.381 187.566 173.791 186.234 172.234C185.931 171.805 185.517 171.454 185.031 171.213C184.544 170.972 184 170.85 183.449 170.857L178.715 165.586L174.95 166.918L174.417 168.577C173.896 170.247 174.417 168.577 168.956 166.579L167.164 161.714L168.242 160.586L168.496 156.071C168.496 156.071 165.36 154.637 162.975 153.441C160.59 152.244 160.045 149.186 160.045 149.186C160.007 147.506 160.375 145.839 161.123 144.31L159.912 141.115L155.444 132.978L156.195 129.309L158.798 127.786L159.827 122.898L155.153 118.767L157.03 115.449L158.362 113.09L159.912 110.336L161.123 104.76C161.123 104.76 160.82 103.722 160.541 102.57" stroke="#263238" stroke-width="1.48791" stroke-linecap="round" stroke-linejoin="round"/>
<path d="M122.244 226.4C122.15 226.299 122.045 226.208 121.929 226.129V226.129L123.273 223.736L122.729 219.221L120.949 218.352C120.949 218.352 123.128 216.343 122.995 214.74C122.971 214.262 123.086 213.787 123.327 213.364C123.567 212.941 123.925 212.586 124.363 212.336L123.782 209.356L122.801 208.871C121.833 208.397 122.426 205.903 122.426 205.903L118.285 206.659L117.159 210.722L112.946 211.727C112.374 211.343 111.898 210.849 111.549 210.278C111.2 209.708 110.987 209.074 110.924 208.42C110.996 206.535 111.771 206.918 111.771 206.918H115.67L118.091 202.629L117.595 200.564L115.851 199.706" stroke="#263238" stroke-width="1.48791" stroke-linecap="round" stroke-linejoin="round"/>
<path d="M115.743 199.707C115.937 199.808 114.69 194.571 114.69 194.571C114.69 194.571 113.14 190.745 111.445 190.056C109.75 189.368 105.924 191.794 105.924 191.794L101.65 192.359L100.681 197.144" stroke="#263238" stroke-width="1.48791" stroke-linecap="round" stroke-linejoin="round"/>
<path d="M132.947 230.215L131.93 233.127C130.316 232.209 128.786 231.246 127.342 230.238L132.124 225.836L131.712 221.016C131.712 221.016 130.829 219.233 132.524 219.583C133.229 219.744 133.969 219.709 134.654 219.482C135.338 219.256 135.936 218.847 136.374 218.307C137.367 217.258 137.246 216.806 139.812 218.07C142.379 219.334 142.549 220.181 142.924 221.152C143.299 222.122 138.505 228.973 138.505 228.973L140.2 229.809C140.2 229.809 139.207 231.953 140.89 232.416L132.947 230.215Z" stroke="#263238" stroke-width="1.48791" stroke-linecap="round" stroke-linejoin="round"/>
<path d="M187.372 194.514L190.35 193.645L192.953 196.094C192.953 196.094 198.099 196.715 196.089 198.803C194.079 200.891 190.241 200.869 190.241 200.869L188.837 203.329L186.415 200.587L185.204 198.329L186.112 196.704L187.372 194.514Z" stroke="#263238" stroke-width="1.48791" stroke-linecap="round" stroke-linejoin="round"/>
<path d="M191.646 184.04C191.037 184.714 190.591 185.504 190.338 186.354L190.145 187.415L185.302 185.044L187.941 180.383L191.646 184.04Z" stroke="#263238" stroke-width="1.48791" stroke-linecap="round" stroke-linejoin="round"/>
<path d="M454.394 450.278C447.905 455.312 397.912 487.299 326.573 482.141C322.735 451.869 308.097 327.509 324.745 308.005C324.745 308.005 365.136 290.047 402.343 297.587C439.55 305.127 454.031 312.351 456.683 318.604C458.693 323.333 455.823 411.394 454.394 450.278Z" fill="#263238"/>
<path d="M401.108 310.872C379.678 328.175 352.072 324.518 352.678 311.233C352.774 309.157 355.16 306.583 355.16 306.583L354.324 305.387L350.692 300.274C348.04 296.447 344.723 291.639 342.41 288.14C340.473 285.16 388.771 257.462 388.771 273.388C388.771 295.827 400.588 300.048 400.588 300.048C405.043 301.719 409.196 304.36 401.108 310.872Z" fill="white" stroke="#263238" stroke-width="1.48791" stroke-linecap="round" stroke-linejoin="round"/>
<path d="M414.657 345.14C414.657 345.14 410.334 358.955 412.38 362.917" stroke="white" stroke-width="1.48791" stroke-linecap="round" stroke-linejoin="round"/>
<path d="M409.608 305.025C409.608 318.355 366.953 331.414 354.458 318.039" stroke="white" stroke-width="1.48791" stroke-linecap="round" stroke-linejoin="round"/>
<path d="M374.52 289.642C374.52 289.642 371.662 299.687 358.344 307.532C357.708 306.515 356.683 305.761 355.474 305.421C355.073 305.36 354.665 305.36 354.264 305.421L350.631 300.308C357.521 295.68 374.52 289.642 374.52 289.642Z" fill="#263238"/>
<path d="M380.501 277.293C380.501 277.293 380.356 287.203 378.08 289.224C361.189 304.326 344.674 305.522 341.95 301.538C323.607 274.72 327.942 267.677 326.077 263.083C322.772 255.024 318.715 241.864 320.507 233.895C324.503 216.095 360.463 202.291 379.399 220.192C388.48 228.759 391.35 247.349 389.437 262.835" fill="white"/>
<path d="M380.501 277.293C380.501 277.293 380.356 287.203 378.08 289.224C361.189 304.326 344.674 305.522 341.95 301.538C323.607 274.72 327.942 267.677 326.077 263.083C322.772 255.024 318.715 241.864 320.507 233.895C324.503 216.095 360.463 202.291 379.399 220.192C388.48 228.759 391.35 247.349 389.437 262.835" stroke="#263238" stroke-width="1.48791" stroke-linecap="round" stroke-linejoin="round"/>
<path d="M328.39 254.798C328.39 254.798 323.341 252.687 322.251 255.204" stroke="#263238" stroke-width="1.48791" stroke-linecap="round" stroke-linejoin="round"/>
<path d="M340.63 254.956C340.63 254.956 351.128 250.859 355.85 255.837" stroke="#263238" stroke-width="1.48791" stroke-linecap="round" stroke-linejoin="round"/>
<path d="M352.29 261.898C352.459 263.365 351.696 264.64 350.57 264.765C349.444 264.889 348.403 263.771 348.234 262.304C348.064 260.837 348.827 259.55 349.953 259.437C351.079 259.324 352.072 260.43 352.29 261.898Z" fill="#263238"/>
<path d="M331.707 262.338C331.888 263.805 331.114 265.092 329.988 265.205C328.862 265.318 327.82 264.223 327.651 262.756C327.481 261.288 328.244 260.002 329.37 259.889C330.496 259.776 331.513 260.871 331.707 262.338Z" fill="#263238"/>
<path d="M332.215 258.478C333.68 260.679 332.881 264.438 330.944 269.596C329.007 274.754 330.714 276.616 338.148 277.135" fill="white"/>
<path d="M332.215 258.478C333.68 260.679 332.881 264.438 330.944 269.596C329.007 274.754 330.714 276.616 338.148 277.135" stroke="#263238" stroke-width="1.48791" stroke-linecap="round" stroke-linejoin="round"/>
<path d="M338.148 286.063C338.148 286.063 347.834 285.239 352.266 282.971" stroke="#263238" stroke-width="1.48791" stroke-linecap="round" stroke-linejoin="round"/>
<path d="M399.51 234.888C399.51 228.184 392.415 214.425 379.968 212.878C372.812 205.903 362.618 203.341 350.244 205.993C321.645 212.111 312.94 238.432 311.693 242.789C311.572 243.195 311.511 243.421 311.511 243.421L319.163 241.615L315.87 247.609L319.878 250.08L318.957 251.028L323.607 255.205L322.154 247.575C323.05 242.654 329.128 235.768 329.128 235.768C326.91 238.449 325.527 241.647 325.132 245.012C327.554 239.155 342.083 233.725 342.083 233.725C337.373 237.292 334.819 244.268 334.819 244.268C339.298 239.121 349.796 235.791 356.516 234.019C358.78 239.109 362.376 244.426 367.509 247.371C372.352 250.148 372.183 255.882 372.183 255.882C377.394 259.258 381.232 264.173 383.08 269.833L388.94 277.305C388.94 277.305 399.51 265.216 399.51 234.888Z" fill="#263238"/>
<path d="M374.847 257.8C372.885 253.884 380.004 243.274 385.053 244.583C387.887 245.328 391.592 250.148 392.318 255.204C393.044 260.261 389.206 269.878 385.114 271.966C382.511 273.32 380.368 269.629 380.368 269.629" fill="white"/>
<path d="M374.847 257.8C372.885 253.884 380.004 243.274 385.053 244.583C387.887 245.328 391.592 250.148 392.318 255.204C393.044 260.261 389.206 269.878 385.114 271.966C382.511 273.32 380.368 269.629 380.368 269.629" stroke="#263238" stroke-width="1.48791" stroke-linecap="round" stroke-linejoin="round"/>
<path d="M65.9551 449.376L202.76 419.555L488.114 450.278L414.645 497.12L65.9551 449.376Z" fill="white"/>
<path d="M65.9551 449.375L202.76 419.555L488.114 450.278" fill="white"/>
<path d="M65.9551 449.375L202.76 419.555L488.114 450.278" stroke="#263238" stroke-width="1.48791" stroke-linecap="round" stroke-linejoin="round"/>
<path d="M184.344 455.358L239.725 432.535L309.743 435.91L278.602 460.73L184.344 455.358Z" fill="white" stroke="#263238" stroke-width="1.48791" stroke-linecap="round" stroke-linejoin="round"/>
<path d="M327.445 306.876C309.683 313.649 305.857 328.875 275.673 389.046C275.673 389.046 262.27 391.608 255.09 406.789C247.91 421.97 259.933 433.957 273.772 433.551C273.772 433.551 279.329 438.066 290.723 437.603C302.116 437.14 352.472 365.309 352.472 365.309L327.445 306.876Z" fill="#263238"/>
<path d="M280.963 392.579C288.906 399.171 293.471 408.844 291.049 419.566" stroke="white" stroke-width="1.48791" stroke-linecap="round" stroke-linejoin="round"/>
<path d="M288.628 395.75C288.628 395.75 298.387 397.737 299.9 409.385" stroke="white" stroke-width="1.48791" stroke-linecap="round" stroke-linejoin="round"/>
<path d="M317.178 361.664C312.567 351.059 310.974 339.523 312.553 328.175" stroke="white" stroke-width="1.48791" stroke-linecap="round" stroke-linejoin="round"/>
<path d="M315.797 346.313C315.059 351.054 320.314 376.292 320.277 402.828" stroke="white" stroke-width="1.48791" stroke-linecap="round" stroke-linejoin="round"/>
<path d="M448.57 311.865C470.788 322.272 473.428 354.293 452.469 392.579C437.661 419.6 417.224 459.499 404.293 462.174C391.362 464.85 378.745 457.344 378.745 457.344C378.745 457.344 367.848 456.87 364.555 449.646C355.547 429.905 378.443 404.961 387.402 410.931C387.402 410.931 416.17 352.611 421.413 348.932" fill="#263238"/>
<path d="M362.496 437.648C359.554 424.025 382.559 407.952 387.402 410.932C387.402 410.932 404.486 411.824 407.04 422.84" stroke="white" stroke-width="1.48791" stroke-linecap="round" stroke-linejoin="round"/>
<path d="M425.081 440.549C435.082 424.104 452.469 392.579 452.469 392.579" stroke="white" stroke-width="1.48791" stroke-linecap="round" stroke-linejoin="round"/>
<path d="M387.403 410.932C387.403 410.932 399.377 404.25 408.325 410.571" stroke="white" stroke-width="1.48791" stroke-linecap="round" stroke-linejoin="round"/>
<path d="M391.495 402.816C391.495 402.816 398.106 389.272 404.814 376.856C411.521 364.44 426.874 346.054 433.255 345.162" stroke="white" stroke-width="1.48791" stroke-linecap="round" stroke-linejoin="round"/>
<path d="M265.308 427.162C263.87 427.097 262.465 426.739 261.192 426.113C240.609 416.101 224.602 399.554 214.965 387.68C211.218 383.142 207.769 378.397 204.637 373.47L209.577 353.74C209.577 353.74 214.226 365.027 232.908 376.122C251.59 387.218 273.784 390.875 280.964 402.083C287.32 411.846 276.121 427.648 265.308 427.162Z" fill="white"/>
<path opacity="0.4" d="M265.308 427.162C265.079 425.735 264.672 424.337 264.098 422.997C259.775 412.907 233.623 392.85 233.623 392.85C227.399 392.669 220.558 390.254 214.989 387.68C211.233 383.143 207.776 378.397 204.637 373.47L209.577 353.74C209.577 353.74 214.226 365.027 232.908 376.122C251.59 387.218 273.784 390.875 280.964 402.083C287.32 411.846 276.121 427.648 265.308 427.162Z" fill="#19A89D"/>
<path d="M265.308 427.162C263.87 427.097 262.465 426.739 261.192 426.113C240.609 416.101 224.602 399.554 214.965 387.68C211.218 383.142 207.769 378.397 204.637 373.47L209.577 353.74C209.577 353.74 214.226 365.027 232.908 376.122C251.59 387.218 273.784 390.875 280.964 402.083C287.32 411.846 276.121 427.648 265.308 427.162Z" stroke="#263238" stroke-width="1.48791" stroke-linecap="round" stroke-linejoin="round"/>
<path d="M218.694 372.274C218.694 372.274 216.139 382.793 209.407 380.434C205.775 379.159 198.777 369.046 197.457 363.944L218.694 372.274Z" fill="white" stroke="#263238" stroke-width="1.48791" stroke-linecap="round" stroke-linejoin="round"/>
<path d="M189.018 307.498L194.515 304.856C194.515 304.856 210.049 304.981 219.687 312.283C228.441 318.92 232.885 329.315 232.885 329.315C232.885 329.315 266.895 311.809 301.632 321.855L315.798 395.457L250.671 399.43L210.025 363.436L189.018 307.498Z" fill="white" stroke="#263238" stroke-width="1.48791" stroke-linecap="round" stroke-linejoin="round"/>
<path d="M320.277 398.403C320.277 398.403 312.637 398.188 302.418 398.505C286.969 398.956 265.623 400.581 255.864 405.875L255.404 405.728L246.469 402.816L246.287 402.568C244.64 400.31 231.358 382.533 212.385 375.298L185.555 305.409C185.555 305.409 213.402 306.538 228.622 329.992L236.262 332.566C236.262 332.566 281.726 320.015 307.177 324.529L320.277 398.403Z" fill="#19A89D"/>
<path opacity="0.3" d="M246.287 402.579C244.64 400.322 231.358 382.545 212.385 375.31L185.555 305.42C185.555 305.42 213.402 306.549 228.622 330.004L246.287 402.579Z" fill="black" fill-opacity="0.7"/>
<path opacity="0.3" d="M302.419 398.504C286.969 398.956 265.624 400.581 255.865 405.875L255.405 405.728L237.558 335.094C237.558 335.094 252.16 332.035 256.652 333.582C256.64 333.604 286.328 354.022 302.419 398.504Z" fill="black" fill-opacity="0.7"/>
<path d="M320.277 398.403C320.277 398.403 312.637 398.188 302.418 398.505C286.969 398.956 265.623 400.581 255.864 405.875L255.404 405.728L246.469 402.816L246.287 402.568C244.64 400.31 231.358 382.533 212.385 375.298L185.555 305.409C185.555 305.409 213.402 306.538 228.622 329.992L236.262 332.566C236.262 332.566 281.726 320.015 307.177 324.529L320.277 398.403Z" stroke="#263238" stroke-width="1.48791" stroke-linecap="round" stroke-linejoin="round"/>
<path d="M236.286 332.577L253.806 400.333" stroke="#263238" stroke-width="1.48791" stroke-linecap="round" stroke-linejoin="round"/>
<path d="M246.469 402.828L229.445 335.117" stroke="#263238" stroke-width="1.48791" stroke-linecap="round" stroke-linejoin="round"/>
<path d="M203.22 373.526C199.333 372.522 191.5 350.749 195.083 341.37C195.083 341.37 199.345 334.473 201.137 333.999C203.849 333.266 214.795 333.48 214.262 335.196C213.051 339.169 204.648 339.101 204.648 339.101L201.924 343.751L202.033 346.313C202.033 346.313 205.992 343.627 207.445 343.706C208.196 343.706 212.07 345.512 215.146 347.025C217.773 348.323 219.384 349.034 218.778 350.207C216.829 354.113 208.535 351.336 208.535 351.336L205.411 355.727C205.411 355.727 208.426 356.212 209.746 356.348C211.066 356.483 222.023 363.289 221.696 364.136C220.401 367.454 210.012 363.865 210.012 363.865L208.172 365.298C208.172 365.298 215.824 367.138 216.647 367.409C217.858 367.826 222.519 371.167 222.447 371.551C221.89 374.486 215.461 372.33 215.461 372.33L209.831 372.116C208.973 372.821 207.941 373.317 206.828 373.56" fill="white"/>
<path d="M203.22 373.526C199.333 372.522 191.5 350.749 195.083 341.37C195.083 341.37 199.345 334.473 201.137 333.999C203.849 333.266 214.795 333.48 214.262 335.196C213.051 339.169 204.648 339.101 204.648 339.101L201.924 343.751L202.033 346.313C202.033 346.313 205.992 343.627 207.445 343.706C208.196 343.706 212.07 345.512 215.146 347.025C217.773 348.323 219.384 349.034 218.778 350.207C216.829 354.113 208.535 351.336 208.535 351.336L205.411 355.727C205.411 355.727 208.426 356.212 209.746 356.348C211.066 356.483 222.023 363.289 221.696 364.136C220.401 367.454 210.012 363.865 210.012 363.865L208.172 365.298C208.172 365.298 215.824 367.138 216.647 367.409C217.858 367.826 222.519 371.167 222.447 371.551C221.89 374.486 215.461 372.33 215.461 372.33L209.831 372.116C208.973 372.821 207.941 373.317 206.828 373.56" stroke="#263238" stroke-width="1.48791" stroke-linecap="round" stroke-linejoin="round"/>
<path d="M201.985 346.313C201.985 346.313 198.353 349.158 197.42 349.982C196.488 350.806 196.718 353.424 196.718 353.424" stroke="#263238" stroke-width="1.48791" stroke-linecap="round" stroke-linejoin="round"/>
<path d="M199.357 359.203C199.357 362.07 201.416 363.808 202.36 364.734C203.305 365.659 200.847 368.176 203.571 369.982" stroke="#263238" stroke-width="1.48791" stroke-linecap="round" stroke-linejoin="round"/>
<path d="M378.697 450.075C371.008 452.028 362.654 439.431 352.459 425.684C345.727 416.654 338.196 407.026 329.539 400.852C328.849 400.367 328.147 399.893 327.445 399.442L332.506 375.739C343.015 380.874 349.529 389.103 360.438 397.557C377.994 411.18 393.553 419.544 397.863 425.571C402.174 431.598 391.87 446.723 378.697 450.075Z" fill="white"/>
<path opacity="0.4" d="M352.459 425.673C345.727 416.643 338.196 407.015 329.539 400.841C330.68 400.896 331.821 400.734 332.893 400.367C332.893 400.367 346.575 410.717 352.459 425.673Z" fill="#19A89D"/>
<path d="M378.697 450.075C371.008 452.028 362.654 439.431 352.459 425.684C345.727 416.654 338.196 407.026 329.539 400.852C328.849 400.367 328.147 399.893 327.445 399.442L332.506 375.739C343.015 380.874 349.529 389.103 360.438 397.557C377.994 411.18 393.553 419.544 397.863 425.571C402.174 431.598 391.87 446.723 378.697 450.075Z" stroke="#263238" stroke-width="1.48791" stroke-linecap="round" stroke-linejoin="round"/>
<path d="M335.339 398.505C334.813 399.381 333.946 400.035 332.917 400.333C332.644 400.433 332.365 400.52 332.082 400.593H331.852C323.727 402.568 305.445 398.459 305.445 398.459C305.445 398.459 293.47 393.155 292.744 391.902C292.238 390.909 291.789 389.892 291.4 388.854L291.073 387.962C291.073 387.962 286.763 385.705 286.23 383.944C285.697 382.184 284.789 381.687 287.441 381.371C290.092 381.055 304.391 381.371 304.391 381.371L288.833 375.456C288.833 375.456 278.529 370.614 277.573 368.91C276.616 367.206 275.418 366.077 280.685 366.754C285.951 367.431 297.454 370.547 297.454 370.547L306.522 372.341L297.514 368.763C297.514 368.763 279.789 366.765 283.142 361.63H293.204C298.904 361.864 304.573 362.536 310.155 363.639C313.085 364.474 332.457 375.694 332.457 375.694" fill="white"/>
<path opacity="0.4" d="M331.828 400.638C323.704 402.613 305.421 398.505 305.421 398.505C305.421 398.505 293.447 393.2 292.72 391.947C292.214 390.954 291.765 389.937 291.376 388.899L306.075 390.401C305.561 391.264 305.291 392.235 305.291 393.222C305.291 394.21 305.561 395.181 306.075 396.044C307.709 398.787 326.331 401.563 331.828 400.638Z" fill="#19A89D"/>
<path d="M335.339 398.505C334.813 399.381 333.946 400.035 332.917 400.333C332.644 400.433 332.365 400.52 332.082 400.593H331.852C323.727 402.568 305.445 398.459 305.445 398.459C305.445 398.459 293.47 393.155 292.744 391.902C292.238 390.909 291.789 389.892 291.4 388.854L291.073 387.962C291.073 387.962 286.763 385.705 286.23 383.944C285.697 382.184 284.789 381.687 287.441 381.371C290.092 381.055 304.391 381.371 304.391 381.371L288.833 375.456C288.833 375.456 278.529 370.614 277.573 368.91C276.616 367.206 275.418 366.077 280.685 366.754C285.951 367.431 297.454 370.547 297.454 370.547L306.522 372.341L297.514 368.763C297.514 368.763 279.789 366.765 283.142 361.63H293.204C298.904 361.864 304.573 362.536 310.155 363.639C313.085 364.474 332.457 375.694 332.457 375.694" stroke="#263238" stroke-width="1.48791" stroke-linecap="round" stroke-linejoin="round"/>
<path d="M291.049 388.008L308.739 390.435" stroke="#263238" stroke-width="1.48791" stroke-linecap="round" stroke-linejoin="round"/>
<path d="M114.712 438.506L159.051 450.922L240.172 433.664C240.172 433.664 190.628 420.548 190.168 420.876C189.708 421.203 114.712 438.506 114.712 438.506Z" fill="#19A89D"/>
<path opacity="0.3" d="M114.712 438.506L159.051 450.922L240.172 433.664C240.172 433.664 190.628 420.548 190.168 420.876C189.708 421.203 114.712 438.506 114.712 438.506Z" fill="black" fill-opacity="0.7"/>
<path d="M114.712 438.506L159.051 450.922L240.172 433.664C240.172 433.664 190.628 420.548 190.168 420.876C189.708 421.203 114.712 438.506 114.712 438.506Z" stroke="#263238" stroke-width="1.48791" stroke-linecap="round" stroke-linejoin="round"/>
<path d="M115.354 423.946C112.242 424.149 111.467 434.601 114.712 438.506L186.341 424.645L192.08 411.981L115.354 423.946Z" fill="#19A89D"/>
<path opacity="0.3" d="M115.354 423.946C112.242 424.149 111.467 434.601 114.712 438.506L186.341 424.645L192.08 411.981L115.354 423.946Z" fill="black" fill-opacity="0.7"/>
<path d="M115.354 423.946C112.242 424.149 111.467 434.601 114.712 438.506L186.341 424.645L192.08 411.981L115.354 423.946Z" stroke="#263238" stroke-width="1.48791" stroke-linecap="round" stroke-linejoin="round"/>
<path d="M236.698 423.799C236.698 423.799 235.633 429.295 236.323 432.682L158.967 449.003L118.188 437.806C118.188 437.806 113.95 430.819 117.643 425.39L192.154 413.595L236.698 423.799Z" fill="white" stroke="#263238" stroke-width="1.48791" stroke-linecap="round" stroke-linejoin="round"/>
<path d="M115.354 423.946L192.081 411.981L239.724 423.235L159.596 438.122L115.354 423.946Z" fill="#19A89D" stroke="#263238" stroke-width="1.48791" stroke-linecap="round" stroke-linejoin="round"/>
<path d="M118.079 430.628L158.652 441.892L225.062 429.431" stroke="#263238" stroke-width="1.48791" stroke-linecap="round" stroke-linejoin="round"/>
<path d="M236.104 430.583L164.693 444.782" stroke="#263238" stroke-width="1.48791" stroke-linecap="round" stroke-linejoin="round"/>
<path d="M119.035 435.063C119.652 435.12 149.619 443.721 149.619 443.721" stroke="#263238" stroke-width="1.48791" stroke-linecap="round" stroke-linejoin="round"/>
<path d="M230.269 427.975L235.947 427.117" stroke="#263238" stroke-width="1.48791" stroke-linecap="round" stroke-linejoin="round"/>
<path d="M157.332 445.809L154.317 445.177" stroke="#263238" stroke-width="1.48791" stroke-linecap="round" stroke-linejoin="round"/>
<path d="M117.643 425.39C119.231 427.095 120.15 429.253 120.249 431.509C120.348 433.765 119.621 435.986 118.188 437.806C116.861 435.991 116.107 433.865 116.011 431.671C115.914 429.476 116.48 427.3 117.643 425.39Z" fill="#263238"/>
<path opacity="0.3" d="M117.643 425.39C119.231 427.095 120.15 429.253 120.249 431.509C120.348 433.765 119.621 435.986 118.188 437.806C116.861 435.991 116.107 433.865 116.011 431.671C115.914 429.476 116.48 427.3 117.643 425.39Z" fill="white" fill-opacity="0.7"/>
<path d="M117.643 425.39C119.231 427.095 120.15 429.253 120.249 431.509C120.348 433.765 119.621 435.986 118.188 437.806C116.861 435.991 116.107 433.865 116.011 431.671C115.914 429.476 116.48 427.3 117.643 425.39Z" stroke="#263238" stroke-width="1.48791" stroke-linecap="round" stroke-linejoin="round"/>
<path d="M283.361 441.892L360.79 444.849L353.247 469.692L257.995 466.306L283.361 441.892Z" fill="white"/>
<path opacity="0.4" d="M283.361 441.892L360.79 444.849L353.247 469.692L257.995 466.306L283.361 441.892Z" fill="#19A89D"/>
<path d="M283.361 441.892L360.79 444.849L353.247 469.692L257.995 466.306L283.361 441.892Z" stroke="#263238" stroke-width="1.48791" stroke-linecap="round" stroke-linejoin="round"/>
</svg>
